#!OML:ASF F:\VICON\USERDATA\INSTALL\rory3\rory3.ASF
:FULLY-SPECIFIED
:DEGREES
73
root 0.8982171926805556 17.903993598933116 28.425033118607764 -3.2296185916148836 -1.0117062370934022 -1.7524111439777947
lfemur 0.5468946262568606 -2.044948197224954 -20.70947818847525
ltibia 40.39823305662062
lfoot -16.902502285530353 2.1158746704518934
ltoes -16.26157905964521
rfemur -14.264445352997601 2.6680668318260192 25.040560509221326
rtibia 36.906326325432424
rfoot -14.929445098935508 -9.218330610745687
rtoes -2.913329123645468
lowerback 10.687517319121895 0.01084301809195462 -0.29315652576742246
upperback -0.10723956153106554 -0.009751516001433758 1.6734845108538514
thorax -6.152584269834095 0.10349270192939536 2.4652584490189557
lowerneck -16.559711920600243 -3.487896040729374 -1.6757448610623031
upperneck 21.82855229984716 -4.825351351292742 1.4168422953112834
head 9.856959687903858 -2.2118020840975454 0.11667233880594215
lclavicle -1.3551357803106025e-15 7.266333515276946e-16
lhumerus -33.27165229448701 6.541438948928429 81.8533427750079
lradius 24.71084692590178
lwrist 11.156414681224083
lhand -29.768551966511062 17.946536892744657
lfingers 7.125019999999999
lthumb -2.604739589940827 49.14274073925988
rclavicle -1.3551357800554746e-15 7.266333516810042e-16
rhumerus -27.291872123121557 -16.4354491854184 -75.43527661984498
rradius 26.03797248723774
rwrist 6.07716371074293
rhand -17.995654734902033 22.484983403709393
rfingers 7.125019999999999
rthumb 7.9200138675177705 -6.78323122441103
74
root 0.9238837155515915 17.904066885940104 28.654100119122 -3.344069987942576 -1.1143301733693247 -1.5441405005847681
lfemur 1.5373067076119211 -2.2158135434329806 -21.023601310818528
ltibia 40.93060045367514
lfoot -16.165059559116187 2.016992825232157
ltoes -18.752592217369866
rfemur -14.567567091968575 2.710245080446753 24.93927846662841
rtibia 35.97451082988739
rfoot -15.102903084870412 -9.19658539838371
rtoes -3.105244053934414
lowerback 10.684935946488011 -0.0763042752798857 -0.4972367847873107
upperback -0.07456385372284148 -0.16616028341029881 1.6641274385355953
thorax -6.1402944913679205 0.041516109489391384 2.630294265273183
lowerneck -16.606338403104196 -3.462835961899632 -1.700376701363048
upperneck 21.771670216505512 -4.764746540399359 1.4804840403388884
head 9.835603558167952 -2.1856473465922974 0.1604307493694378
lclavicle -1.3551357803083738e-15 7.266333515292927e-16
lhumerus -32.467991328266024 5.755054207575295 81.71424643909792
lradius 24.922416250205014
lwrist 10.89157266853482
lhand -29.72541582531916 17.128635620801052
lfingers 7.125019999999999
lthumb -2.5449689236144137 48.15048659494395
rclavicle -1.355135780045805e-15 7.266333516871022e-16
rhumerus -27.35593875207692 -16.24127632541464 -75.98088533482247
rradius 25.8488518459435
rwrist 6.6774686065931945
rhand -17.925199364125472 22.35715214595822
rfingers 7.125019999999999
rthumb 8.01021838809076 -7.0452658389568
75
root 0.948703014271583 17.89588782196947 29.39774614722203 -3.52510877990232 -1.1810020251562463 -1.2479983657164933
lfemur 2.65583733228251 -2.4222876691911104 -21.45721066880427
ltibia 41.00177793431664
lfoot -15.26855227236643 1.4436302134168133
ltoes -20.35502001665333
rfemur -14.736768765779017 2.739125902412937 24.80535294554568
rtibia 35.38534148823337
rfoot -15.098846869310908 -9.140016950437692
rtoes -2.9158188606169944
lowerback 10.687978159252353 -0.15699689938432987 -0.7115529472180451
upperback -0.03638536498165986 -0.33859396527345303 1.6205709177399694
thorax -6.1053054702843585 -0.0425355610584468 2.78850137044102
lowerneck -16.656298514789906 -3.4312483017308124 -1.7218325166232407
upperneck 21.712653163110353 -4.707093349595335 1.5303820500009868
head 9.811051408868725 -2.1621931480704317 0.19889708654769436
lclavicle -1.3551357803109437e-15 7.266333515280832e-16
lhumerus -31.44158845038361 4.929425614045957 81.70040710617695
lradius 25.117690051403937
lwrist 10.598905554906697
lhand -29.756039976213497 16.47307225777829
lfingers 7.125019999999999
lthumb -2.5440945655519798 47.48308683080857
rclavicle -1.3551357800465242e-15 7.266333516869871e-16
rhumerus -27.650790067809574 -16.266121613667664 -76.39968366430848
rradius 25.58331400082976
rwrist 6.913802421194825
rhand -17.959047920906887 22.053109792723
rfingers 7.125019999999999
rthumb 8.033337288106287 -7.521190804883517
76
root 0.9854998046089225 17.89058939109386 30.57162111032499 -3.609611114221372 -1.0324141081665446 -1.1094769449003707
lfemur 3.0225742149588344 -2.6446845163555586 -21.8365568418171
ltibia 41.377288799653776
lfoot -14.360853881533469 0.5807957940057529
ltoes -21.65924604092654
rfemur -14.752726356300053 2.650203405384761 24.77233279299703
rtibia 35.183907119354835
rfoot -15.320699184907092 -9.242818491027744
rtoes -2.2414502077867082
lowerback 10.667370599643533 -0.25944088598672976 -0.701515439298849
upperback -0.03233734112037103 -0.4904035538776457 1.6373089388980249
thorax -6.094422811255012 -0.11357034506523589 2.8777822750702198
lowerneck -16.69390323788335 -3.395262142435739 -1.7252159775012292
upperneck 21.6074862765898 -4.637061404430284 1.582791201444345
head 9.762191528976393 -2.1350655997326413 0.23783433021969805
lclavicle -1.355135780308555e-15 7.266333515297882e-16
lhumerus -30.425262456780974 3.823032775334571 81.66492946813736
lradius 25.404146280447076
lwrist 10.322130918729268
lhand -29.718998070376035 16.099612924151756
lfingers 7.125019999999999
lthumb -2.494400712706033 47.109905626679975
rclavicle -1.3551357800473456e-15 7.266333516867873e-16
rhumerus -27.981871945098618 -16.387287658481213 -76.79055467062841
rradius 25.318593254310507
rwrist 7.154280713968889
rhand -17.890670412329694 22.013783255746176
rfingers 7.125019999999999
rthumb 8.115976794461854 -7.787776078150409
